TITLE ""
FILE "2Q_k_011-020.mp3" MP3
  TRACK 01 AUDIO
    TITLE "2Q_k_011-020_01"
    INDEX 01 00:00:00
  TRACK 02 AUDIO
    TITLE "2Q_k_011-020_02"
    INDEX 01 00:02:15
  TRACK 03 AUDIO
    TITLE "2Q_k_011-020_03"
    INDEX 01 00:02:62
  TRACK 04 AUDIO
    TITLE "2Q_k_011-020_04"
    INDEX 01 00:05:68
  TRACK 05 AUDIO
    TITLE "2Q_k_011-020_05"
    INDEX 01 00:06:40
  TRACK 06 AUDIO
    TITLE "2Q_k_011-020_06"
    INDEX 01 00:10:32
  TRACK 07 AUDIO
    TITLE "2Q_k_011-020_07"
    INDEX 01 00:12:47
  TRACK 08 AUDIO
    TITLE "2Q_k_011-020_08"
    INDEX 01 00:13:17
  TRACK 09 AUDIO
    TITLE "2Q_k_011-020_09"
    INDEX 01 00:15:24
  TRACK 10 AUDIO
    TITLE "2Q_k_011-020_10"
    INDEX 01 00:15:71
  TRACK 11 AUDIO
    TITLE "2Q_k_011-020_11"
    INDEX 01 00:18:51
  TRACK 12 AUDIO
    TITLE "2Q_k_011-020_12"
    INDEX 01 00:19:21
  TRACK 13 AUDIO
    TITLE "2Q_k_011-020_13"
    INDEX 01 00:21:48
  TRACK 14 AUDIO
    TITLE "2Q_k_011-020_14"
    INDEX 01 00:22:51
  TRACK 15 AUDIO
    TITLE "2Q_k_011-020_15"
    INDEX 01 00:23:21
  TRACK 16 AUDIO
    TITLE "2Q_k_011-020_16"
    INDEX 01 00:25:04
  TRACK 17 AUDIO
    TITLE "2Q_k_011-020_17"
    INDEX 01 00:25:49
  TRACK 18 AUDIO
    TITLE "2Q_k_011-020_18"
    INDEX 01 00:27:42
  TRACK 19 AUDIO
    TITLE "2Q_k_011-020_19"
    INDEX 01 00:28:14
  TRACK 20 AUDIO
    TITLE "2Q_k_011-020_20"
    INDEX 01 00:30:06
  TRACK 21 AUDIO
    TITLE "2Q_k_011-020_21"
    INDEX 01 00:32:08
  TRACK 22 AUDIO
    TITLE "2Q_k_011-020_22"
    INDEX 01 00:32:57
  TRACK 23 AUDIO
    TITLE "2Q_k_011-020_23"
    INDEX 01 00:34:54
  TRACK 24 AUDIO
    TITLE "2Q_k_011-020_24"
    INDEX 01 00:35:26
  TRACK 25 AUDIO
    TITLE "2Q_k_011-020_25"
    INDEX 01 00:36:75
  TRACK 26 AUDIO
    TITLE "2Q_k_011-020_26"
    INDEX 01 00:37:45
  TRACK 27 AUDIO
    TITLE "2Q_k_011-020_27"
    INDEX 01 00:40:14
  TRACK 28 AUDIO
    TITLE "2Q_k_011-020_28"
    INDEX 01 00:42:42
  TRACK 29 AUDIO
    TITLE "2Q_k_011-020_29"
    INDEX 01 00:43:12
  TRACK 30 AUDIO
    TITLE "2Q_k_011-020_30"
    INDEX 01 00:44:64
  TRACK 31 AUDIO
    TITLE "2Q_k_011-020_31"
    INDEX 01 00:45:34
  TRACK 32 AUDIO
    TITLE "2Q_k_011-020_32"
    INDEX 01 00:48:70
  TRACK 33 AUDIO
    TITLE "2Q_k_011-020_33"
    INDEX 01 00:49:40
  TRACK 34 AUDIO
    TITLE "2Q_k_011-020_34"
    INDEX 01 00:52:40
  TRACK 35 AUDIO
    TITLE "2Q_k_011-020_35"
    INDEX 01 00:55:66
  TRACK 36 AUDIO
    TITLE "2Q_k_011-020_36"
    INDEX 01 00:56:38
  TRACK 37 AUDIO
    TITLE "2Q_k_011-020_37"
    INDEX 01 00:58:12
  TRACK 38 AUDIO
    TITLE "2Q_k_011-020_38"
    INDEX 01 00:58:57
  TRACK 39 AUDIO
    TITLE "2Q_k_011-020_39"
    INDEX 01 01:01:63
  TRACK 40 AUDIO
    TITLE "2Q_k_011-020_40"
    INDEX 01 01:02:33
  TRACK 41 AUDIO
    TITLE "2Q_k_011-020_41"
    INDEX 01 01:06:56
  TRACK 42 AUDIO
    TITLE "2Q_k_011-020_42"
    INDEX 01 01:10:05
  TRACK 43 AUDIO
    TITLE "2Q_k_011-020_43"
    INDEX 01 01:10:50
  TRACK 44 AUDIO
    TITLE "2Q_k_011-020_44"
    INDEX 01 01:12:27
  TRACK 45 AUDIO
    TITLE "2Q_k_011-020_45"
    INDEX 01 01:13:09
  TRACK 46 AUDIO
    TITLE "2Q_k_011-020_46"
    INDEX 01 01:15:61
  TRACK 47 AUDIO
    TITLE "2Q_k_011-020_47"
    INDEX 01 01:16:31
  TRACK 48 AUDIO
    TITLE "2Q_k_011-020_48"
    INDEX 01 01:20:21
  TRACK 49 AUDIO
    TITLE "2Q_k_011-020_49"
    INDEX 01 01:21:70
  TRACK 50 AUDIO
    TITLE "2Q_k_011-020_50"
    INDEX 01 01:22:42
  TRACK 51 AUDIO
    TITLE "2Q_k_011-020_51"
    INDEX 01 01:24:01
  TRACK 52 AUDIO
    TITLE "2Q_k_011-020_52"
    INDEX 01 01:24:46
  TRACK 53 AUDIO
    TITLE "2Q_k_011-020_53"
    INDEX 01 01:26:45
  TRACK 54 AUDIO
    TITLE "2Q_k_011-020_54"
    INDEX 01 01:27:17
  TRACK 55 AUDIO
    TITLE "2Q_k_011-020_55"
    INDEX 01 01:30:19
  TRACK 56 AUDIO
    TITLE "2Q_k_011-020_56"
    INDEX 01 01:35:60
  TRACK 57 AUDIO
    TITLE "2Q_k_011-020_57"
    INDEX 01 01:36:32
  TRACK 58 AUDIO
    TITLE "2Q_k_011-020_58"
    INDEX 01 01:40:10
  TRACK 59 AUDIO
    TITLE "2Q_k_011-020_59"
    INDEX 01 01:40:57
  TRACK 60 AUDIO
    TITLE "2Q_k_011-020_60"
    INDEX 01 01:44:02
  TRACK 61 AUDIO
    TITLE "2Q_k_011-020_61"
    INDEX 01 01:44:47
  TRACK 62 AUDIO
    TITLE "2Q_k_011-020_62"
    INDEX 01 01:49:36
  TRACK 63 AUDIO
    TITLE "2Q_k_011-020_63"
    INDEX 01 01:52:09
  TRACK 64 AUDIO
    TITLE "2Q_k_011-020_64"
    INDEX 01 01:52:54
  TRACK 65 AUDIO
    TITLE "2Q_k_011-020_65"
    INDEX 01 01:53:73
  TRACK 66 AUDIO
    TITLE "2Q_k_011-020_66"
    INDEX 01 01:54:51
  TRACK 67 AUDIO
    TITLE "2Q_k_011-020_67"
    INDEX 01 01:55:49
  TRACK 68 AUDIO
    TITLE "2Q_k_011-020_68"
    INDEX 01 01:56:19
  TRACK 69 AUDIO
    TITLE "2Q_k_011-020_69"
    INDEX 01 01:59:43
  TRACK 70 AUDIO
    TITLE "2Q_k_011-020_70"
    INDEX 01 02:01:36
